<svg xmlns="http://www.w3.org/2000/svg" viewBox="0 0 134.59 43.55">
  <title>riot</title>
  <g id="Layer_2" data-name="Layer 2">
    <g id="one">
      <g>
        <g>
          <polygon points="26.77 0 0 12.64 4.14 31.7 9.6 31.7 8.66 18.07 9.49 17.81 12.78 31.7 18.45 31.7 18.24 15.1 19.08 14.84 21.95 31.7 27.95 31.7 29.37 11.64 30.21 11.38 31.69 31.7 39.64 31.7 42.43 3.81 26.77 0" style="fill: #e6e5e2"/>
          <polygon points="22.18 39.5 20.2 34.4 39.29 35.38 38.48 43.55 22.18 39.5" style="fill: #e6e5e2"/>
        </g>
        <g>
          <path d="M107.72,41.46l0-1.44,5.14-.08v-1.8l-5.21-.08,0-1.49,6.94-.18.06-1.85h-9.74l-.29,9h10.21l-.06-1.92Zm22.53-2.56-7.07-1.2-.05-1.05L130,36.4l-.18-1.86h-9.15l-.58,4.65,7.49,1.3.14.89-8,.31-.18,1.86h11.19ZM71.16,34.54l-2.44,9H72l.46-2.26,4.67,0,.45,2.22h3.27l-2.44-9Zm1.69,4.81.58-2.8,2.68-.09.58,2.79ZM59.18,38.2l-.11,1.68,2.71.09,0,1.52-5.4-.12.2-4.66,7.57-.26L64,34.54H54l-.91,9H64.5L64.2,38Zm36.67-3.66L92.13,38.6,88.4,34.54H85.72l-.81,9h3.26l.15-5.66,3.81,3.51,3.81-3.51.14,5.66h3.27l-.82-9Z" style="fill: #e6e5e2"/>
          <polygon points="87.08 1.55 80.99 1.55 80.44 29.41 87.8 29.41 87.08 1.55" style="fill: #e6e5e2"/>
          <path d="M111.87,1.56h-19l-.74,27.85h21.1ZM106,23.35l-6.72.21L99,7.18l7,.21Z" style="fill: #e6e5e2"/>
          <polygon points="134.59 7.64 133.91 1.55 115.19 1.55 115.35 6.98 121.34 7.18 121.95 29.41 129.33 29.41 127.12 7.38 134.59 7.64" style="fill: #e6e5e2"/>
          <path d="M69.07,29.41h8L71.85,16.9,76,14.63,73.17,1.55H52.75l-.67,6,4.57-.15-2.2,22h7.14l.2-7,5.15-2.81ZM62.21,7.25l5.87-.2.67,5.55L62,15.8Z" style="fill: #e6e5e2"/>
        </g>
      </g>
    </g>
  </g>
</svg>
